{"asset":{"generator":"3D Builder","version":"2.0"},"scene":0,"scenes":[{"nodes":[0]}],"nodes":[{"children":[1,2,3]},{"mesh":0,"matrix":[39.370079040527344,0,0,0,0,-4.6932791519793682E-6,-39.370075225830078,0,0,39.370075225830078,-4.6932791519793682E-6,0,3.1980849598767236E-5,0.00021820369875058532,-3.0305169929079057E-8,1]},{"mesh":1,"matrix":[39.370079040527344,0,0,0,0,-4.6932791519793682E-6,-39.370075225830078,0,0,39.370075225830078,-4.6932791519793682E-6,0,3.1980849598767236E-5,0.00021820369875058532,-3.0305169929079057E-8,1]},{"mesh":2,"matrix":[39.370079040527344,0,0,0,0,-4.6932791519793682E-6,-39.370075225830078,0,0,39.370075225830078,-4.6932791519793682E-6,0,3.1980849598767236E-5,0.00021820369875058532,-3.0305169929079057E-8,1]}],"meshes":[{"primitives":[{"attributes":{"POSITION":0},"mode":4,"indices":2,"material":0},{"attributes":{"POSITION":1},"mode":4,"indices":3,"material":1}]},{"primitives":[{"attributes":{"POSITION":4},"mode":4,"indices":5,"material":0}]},{"primitives":[{"attributes":{"POSITION":6},"mode":4,"indices":7,"material":0}]}],"materials":[{"name":"Plastic","pbrMetallicRoughness":{"baseColorFactor":[0.67307847738265991,0.67307847738265991,0.67307847738265991,1],"metallicFactor":0,"roughnessFactor":0.16818180680274963},"alphaMode":"OPAQUE"},{"name":"Glass","pbrMetallicRoughness":{"baseColorFactor":[0.800000011920929,0.800000011920929,0.800000011920929,1],"metallicFactor":0.84999996423721313,"roughnessFactor":0},"alphaMode":"OPAQUE"}],"accessors":[{"bufferView":0,"byteOffset":0,"count":2274,"componentType":5126,"type":"VEC3","min":[-0.0029463998507708311,-0.0038354007992893457,-0.0012788953026756644],"max":[0.0029447749257087708,0.0038353994023054838,0.0010131399612873793]},{"bufferView":0,"byteOffset":27288,"count":66,"componentType":5126,"type":"VEC3","min":[-0.0029463998507708311,-0.0038354007992893457,0.0010131399612873793],"max":[0.0029447749257087708,0.0038353994023054838,0.0012678105849772692]},{"bufferView":1,"byteOffset":0,"count":13662,"componentType":5125,"type":"SCALAR"},{"bufferView":1,"byteOffset":54648,"count":306,"componentType":5125,"type":"SCALAR"},{"bufferView":2,"byteOffset":0,"count":110,"componentType":5126,"type":"VEC3","min":[6.0553964431164786E-5,-0.00098799972329288721,-0.00071432429831475019],"max":[0.0015824410365894437,-0.00073639745824038982,-0.0004596537328325212]},{"bufferView":3,"byteOffset":0,"count":660,"componentType":5125,"type":"SCALAR"},{"bufferView":4,"byteOffset":0,"count":82,"componentType":5126,"type":"VEC3","min":[-0.0016270222840830684,-0.0012948315124958754,-0.000729665975086391],"max":[0.0003121561894658953,-0.00042649710667319596,-0.00047806365182623267]},{"bufferView":5,"byteOffset":0,"count":480,"componentType":5125,"type":"SCALAR"}],"bufferViews":[{"buffer":0,"byteOffset":0,"byteLength":28080,"byteStride":12,"target":34962},{"buffer":0,"byteOffset":28080,"byteLength":55872,"target":34963},{"buffer":0,"byteOffset":83952,"byteLength":1320,"byteStride":12,"target":34962},{"buffer":0,"byteOffset":85272,"byteLength":2640,"target":34963},{"buffer":0,"byteOffset":87912,"byteLength":984,"byteStride":12,"target":34962},{"buffer":0,"byteOffset":88896,"byteLength":1920,"target":34963}],"buffers":[{"byteLength":90816,"uri":"sub.bin"}]}